<svg width="114" height="108" viewBox="0 0 114 108" fill="none" xmlns="http://www.w3.org/2000/svg">
<g filter="url(#filter0_d_1606_113)">
<path d="M45.8047 47.052L45.8638 48.0502C45.9251 48.0466 45.9859 48.0373 46.0455 48.0226L45.8047 47.052ZM50.7675 50.5607L51.7493 50.3709L51.7493 50.3709L50.7675 50.5607ZM51.621 58.4948L50.859 59.1424L50.859 59.1424L51.621 58.4948ZM47.9858 47.1669C51.0695 47.1669 53.5693 44.6671 53.5693 41.5834H51.5693C51.5693 43.5625 49.9649 45.1669 47.9858 45.1669V47.1669ZM42.4024 41.5834C42.4024 44.6671 44.9022 47.1669 47.9858 47.1669V45.1669C46.0067 45.1669 44.4024 43.5625 44.4024 41.5834H42.4024ZM47.9858 36C44.9022 36 42.4024 38.4998 42.4024 41.5834H44.4024C44.4024 39.6044 46.0067 38 47.9858 38V36ZM53.5693 41.5834C53.5693 38.4998 51.0695 36 47.9858 36V38C49.9649 38 51.5693 39.6044 51.5693 41.5834H53.5693ZM69.4605 41.5834C69.4605 43.5625 67.8561 45.1669 65.8771 45.1669V47.1669C68.9607 47.1669 71.4605 44.6671 71.4605 41.5834H69.4605ZM65.8771 38C67.8561 38 69.4605 39.6044 69.4605 41.5834H71.4605C71.4605 38.4998 68.9607 36 65.8771 36V38ZM62.2936 41.5834C62.2936 39.6044 63.898 38 65.8771 38V36C62.7934 36 60.2936 38.4998 60.2936 41.5834H62.2936ZM65.8771 45.1669C63.898 45.1669 62.2936 43.5625 62.2936 41.5834H60.2936C60.2936 44.6671 62.7934 47.1669 65.8771 47.1669V45.1669ZM42.0115 61.6989C41.9734 61.6989 41.9505 61.6953 41.9399 61.6931C41.9296 61.691 41.9292 61.6898 41.9356 61.6928C41.942 61.6958 41.9513 61.7011 41.9614 61.7092C41.9712 61.7171 41.9793 61.7255 41.9853 61.7331C41.9911 61.7405 41.9944 61.7462 41.996 61.7494C41.9969 61.751 41.9974 61.7521 41.9976 61.7527C41.9979 61.7533 41.998 61.7536 41.998 61.7537C41.998 61.7538 41.998 61.7539 41.9981 61.7541C41.9981 61.7543 41.9983 61.755 41.9985 61.7564C41.9988 61.7583 42 61.7665 42 61.7822H40C40 62.1163 40.1016 62.5773 40.4193 62.9772C40.772 63.4212 41.3205 63.6989 42.0115 63.6989V61.6989ZM42 61.7822C42 56.0808 42.7925 52.5781 43.7138 50.529C44.661 48.4226 45.6256 48.0643 45.8638 48.0502L45.7456 46.0537C44.3823 46.1345 42.9445 47.363 41.8897 49.7088C40.8091 52.1121 40 55.9271 40 61.7822H42ZM46.0455 48.0226C46.5827 47.8893 47.3948 47.8522 48.1065 48.1784C48.7543 48.4753 49.4749 49.1424 49.7857 50.7504L51.7493 50.3709C51.3331 48.2174 50.2518 46.9616 48.9398 46.3602C47.6917 45.7882 46.386 45.8775 45.564 46.0814L46.0455 48.0226ZM42.0115 63.6989H50.7675V61.6989H42.0115V63.6989ZM50.7675 63.6989C51.3577 63.6989 51.7933 63.3952 52.038 63.0153C52.248 62.6893 52.3049 62.3376 52.3049 62.0983H50.3049C50.3049 62.0652 50.3085 62.0446 50.3125 62.029C50.3166 62.0129 50.3274 61.9776 50.3567 61.9321C50.388 61.8835 50.4442 61.8183 50.5333 61.7669C50.6261 61.7134 50.7133 61.6989 50.7675 61.6989V63.6989ZM52.3049 62.0983V58.6528H50.3049V62.0983H52.3049ZM52.3049 58.6528C52.3049 58.6075 52.3055 58.6013 52.3052 58.605C52.3048 58.6087 52.3025 58.6332 52.2935 58.6704C52.2859 58.702 52.2633 58.7866 52.2032 58.8874C52.1413 58.9911 52.0082 59.1625 51.7656 59.2632C51.5099 59.3694 51.2723 59.3397 51.1192 59.2881C50.9823 59.242 50.9003 59.1764 50.8779 59.1578C50.85 59.1346 50.8434 59.1241 50.859 59.1424L52.3829 57.8471C52.2886 57.7362 52.0789 57.5009 51.7572 57.3926C51.5596 57.3261 51.285 57.2972 50.9985 57.4162C50.725 57.5297 50.5672 57.726 50.4855 57.8628C50.3442 58.0997 50.3213 58.3421 50.3144 58.4133C50.3042 58.5196 50.3049 58.6191 50.3049 58.6528H52.3049ZM50.859 59.1424C51.3168 59.681 52.2233 60.1602 53.3478 60.5038C54.5252 60.8635 56.0889 61.1201 58.0131 61.1069L57.9993 59.1069C56.2567 59.1189 54.8965 58.8857 53.9322 58.591C52.9152 58.2803 52.4625 57.9408 52.3829 57.8471L50.859 59.1424ZM49.7857 50.7504C50.0166 51.9453 50.6049 53.514 51.637 54.8129C52.6827 56.1288 54.2377 57.2243 56.3503 57.25L56.3746 55.2502C55.0209 55.2337 53.9849 54.5528 53.2029 53.5686C52.4074 52.5675 51.9313 51.3126 51.7493 50.3709L49.7857 50.7504Z" fill="#3AC4E8"/>
</g>
<g filter="url(#filter1_d_1606_113)">
<path d="M56.3623 56.2504C62.7475 56.2504 63.0636 51.3508 63.6958 49.0749C64.249 47.0835 68.8546 45.1679 71.1558 50.1497C72.4553 52.9629 73.2547 59.7275 72.9259 62.0034C72.8985 62.1931 72.8627 62.5408 72.4834 62.5408H63.2533C62.9372 62.5408 62.8107 62.4017 62.8107 62.0982V58.5579C62.8107 58.3682 62.7448 58.1551 62.4667 58.408C60.8229 60.0517 57.4091 60.2287 57.2826 60.0517" stroke="#3AC4E8" stroke-width="2" stroke-linejoin="round"/>
</g>
<defs>
<filter id="filter0_d_1606_113" x="0" y="0" width="111.46" height="107.699" filterUnits="userSpaceOnUse" color-interpolation-filters="sRGB">
<feFlood flood-opacity="0" result="BackgroundImageFix"/>
<feColorMatrix in="SourceAlpha" type="matrix" values="0 0 0 0 0 0 0 0 0 0 0 0 0 0 0 0 0 0 127 0" result="hardAlpha"/>
<feOffset dy="4"/>
<feGaussianBlur stdDeviation="20"/>
<feComposite in2="hardAlpha" operator="out"/>
<feColorMatrix type="matrix" values="0 0 0 0 0 0 0 0 0 0 0 0 0 0 0 0 0 0 0.25 0"/>
<feBlend mode="normal" in2="BackgroundImageFix" result="effect1_dropShadow_1606_113"/>
<feBlend mode="normal" in="SourceGraphic" in2="effect1_dropShadow_1606_113" result="shape"/>
</filter>
<filter id="filter1_d_1606_113" x="16.3623" y="9.98804" width="97.6372" height="97.5527" filterUnits="userSpaceOnUse" color-interpolation-filters="sRGB">
<feFlood flood-opacity="0" result="BackgroundImageFix"/>
<feColorMatrix in="SourceAlpha" type="matrix" values="0 0 0 0 0 0 0 0 0 0 0 0 0 0 0 0 0 0 127 0" result="hardAlpha"/>
<feOffset dy="4"/>
<feGaussianBlur stdDeviation="20"/>
<feComposite in2="hardAlpha" operator="out"/>
<feColorMatrix type="matrix" values="0 0 0 0 0 0 0 0 0 0 0 0 0 0 0 0 0 0 0.25 0"/>
<feBlend mode="normal" in2="BackgroundImageFix" result="effect1_dropShadow_1606_113"/>
<feBlend mode="normal" in="SourceGraphic" in2="effect1_dropShadow_1606_113" result="shape"/>
</filter>
</defs>
</svg>
