<svg width="607" height="507" viewBox="0 0 607 507" fill="none" xmlns="http://www.w3.org/2000/svg">
<g filter="url(#filter0_d_1606_112)">
<path fill-rule="evenodd" clip-rule="evenodd" d="M160.5 36C114.937 36 78 72.9365 78 118.5C78 152.519 98.5907 181.729 127.989 194.347C126.754 194.575 125.569 194.824 124.44 195.089C106.366 196.702 85.4631 213.643 69.3796 249.412C52.75 286.395 40 345.832 40 438C40 442.23 41.3106 448.173 45.3703 453.283C49.78 458.834 56.7362 462.5 66 462.5H204.5C211.652 462.5 216.79 458.88 219.707 454.353C222.275 450.366 223 445.975 223 443V402.249C229.454 405.918 237.586 409.332 247.015 412.214C263.588 417.277 285.363 421.062 312.048 421.471C312.742 421.491 313.468 421.5 314.221 421.496C315.82 421.51 317.436 421.511 319.069 421.5L319.068 421.337C325.23 420.983 333.105 420.016 341.629 418.211C355.146 415.349 371.379 410.152 385 401.121V443C385 446.499 385.684 451.416 389.477 455.293C393.313 459.215 398.29 460 402 460H548C551.085 460 554.135 459.273 556.849 457.583C559.533 455.913 561.275 453.684 562.385 451.63C564.193 448.284 564.686 444.53 564.858 443.221L564.859 443.216C564.874 443.1 564.886 443.004 564.897 442.93C567.713 423.435 565.659 386.486 560.565 349.57C555.462 312.599 547.013 273.479 536.078 249.807C520.321 215.694 497.394 199.27 474.225 195.089C504.572 182.903 526 153.204 526 118.5C526 72.9365 489.064 36 443.5 36C397.936 36 361 72.9365 361 118.5C361 160.308 392.099 194.853 432.426 200.263C428.058 202.193 423.98 204.501 420.276 207.093C410.376 214.022 402.352 223.57 399.365 234.324C398.036 239.107 396.847 244.221 395.611 249.538C391.718 266.28 387.356 285.043 376.677 301.899C369.911 312.58 360.732 322.084 347.66 328.985C334.565 335.898 317.021 340.485 293.122 340.5L293.122 340.495C269.501 340.207 251.604 328.23 238.467 311.698C225.196 294.997 217.34 274.234 214.318 258.602C208.163 226.753 192.605 208.681 174.256 199.858C213.272 193.31 243 159.377 243 118.5C243 72.9365 206.063 36 160.5 36ZM293 350.494L292.878 360.493C261.669 360.113 238.582 343.99 222.809 324.141C207.171 304.461 198.192 280.561 194.682 262.398C189.459 235.375 177.012 223.11 164.833 217.528C152.016 211.653 137.734 212.392 128.408 214.706C127.812 214.854 127.204 214.946 126.591 214.983C119.55 215.4 102.915 223.598 87.6204 257.614C72.5833 291.055 60 347.368 60 438C60 438.604 60.2894 439.91 61.0297 440.842C61.3312 441.222 61.7271 441.571 62.3351 441.855C62.9528 442.144 64.0804 442.5 66 442.5H203V388.5L203 388.418C203 387.815 202.999 386.568 203.124 385.269C203.221 384.259 203.509 381.545 205.037 378.984C205.91 377.519 207.561 375.485 210.385 374.312C213.341 373.084 216.194 373.371 218.3 374.08C221.775 375.25 224.217 377.873 225.619 379.524C227.978 382.299 236.46 388.076 252.86 393.086C267.246 397.482 286.755 400.981 311.201 401.453C311.064 401.411 310.97 401.388 310.93 401.378C310.882 401.366 310.848 401.358 310.83 401.354C310.821 401.352 310.817 401.351 310.817 401.351C310.817 401.351 310.822 401.352 310.832 401.353C310.882 401.36 311.062 401.387 311.404 401.415C311.715 401.44 312.083 401.461 312.509 401.475C313.086 401.484 313.665 401.491 314.248 401.496C315.072 401.49 316.017 401.465 317.08 401.415C322.276 401.166 329.494 400.338 337.486 398.645C353.828 395.184 371.536 388.507 382.486 377.557C382.598 377.445 382.713 377.336 382.831 377.229C384.402 375.8 386.671 374.067 389.581 373.256C393.116 372.272 397.283 372.802 400.558 375.703C403.177 378.022 404.108 380.91 404.478 382.408C404.9 384.12 405 385.754 405 387V440H545.113C547.482 423.467 545.811 388.962 540.752 352.305C535.694 315.652 527.543 279.021 517.922 258.194C501.213 222.022 477.476 212.779 458.326 214.114C448.3 214.812 438.963 218.427 431.744 223.479C424.386 228.628 420.023 234.68 418.635 239.677C417.675 243.135 416.718 247.284 415.649 251.92C411.726 268.941 406.289 292.528 393.573 312.602C385.214 325.795 373.58 337.917 356.997 346.672C340.457 355.403 319.538 360.5 293 360.5V350.494ZM223.032 387.186C223.055 386.945 223.073 386.976 223.031 387.195L223.032 387.186ZM98 118.5C98 83.9822 125.982 56 160.5 56C195.018 56 223 83.9822 223 118.5C223 153.018 195.018 181 160.5 181C125.982 181 98 153.018 98 118.5ZM381 118.5C381 83.9822 408.982 56 443.5 56C478.018 56 506 83.9822 506 118.5C506 153.018 478.018 181 443.5 181C408.982 181 381 153.018 381 118.5ZM401.559 439.983C401.526 439.977 401.509 439.975 401.508 439.976C401.508 439.976 401.511 439.976 401.517 439.977C401.525 439.979 401.539 439.981 401.559 439.983ZM405.017 443.443C405.025 443.486 405.027 443.509 405.027 443.51C405.026 443.511 405.022 443.49 405.017 443.443ZM396.552 391.804C396.552 391.806 396.528 391.825 396.481 391.857C396.528 391.819 396.552 391.803 396.552 391.804ZM384.997 386.872C384.996 386.862 384.995 386.856 384.995 386.855C384.995 386.853 384.996 386.858 384.997 386.872Z" fill="#007ACC"/>
</g>
<defs>
<filter id="filter0_d_1606_112" x="0" y="0" width="606.167" height="506.5" filterUnits="userSpaceOnUse" color-interpolation-filters="sRGB">
<feFlood flood-opacity="0" result="BackgroundImageFix"/>
<feColorMatrix in="SourceAlpha" type="matrix" values="0 0 0 0 0 0 0 0 0 0 0 0 0 0 0 0 0 0 127 0" result="hardAlpha"/>
<feOffset dy="4"/>
<feGaussianBlur stdDeviation="20"/>
<feComposite in2="hardAlpha" operator="out"/>
<feColorMatrix type="matrix" values="0 0 0 0 0 0 0 0 0 0 0 0 0 0 0 0 0 0 0.25 0"/>
<feBlend mode="normal" in2="BackgroundImageFix" result="effect1_dropShadow_1606_112"/>
<feBlend mode="normal" in="SourceGraphic" in2="effect1_dropShadow_1606_112" result="shape"/>
</filter>
</defs>
</svg>
